<svg xmlns="http://www.w3.org/2000/svg">
    <symbol id="loader" viewBox="0 0 281 240">
        <path d="M137.136 131.894L52.5191 180.872L40.0869 168.44L114.265 118.596L137.136 131.894Z" fill="url(#paint0_linear_2600_14280)"/>
        <path d="M139.049 135.206L54.324 183.998L58.8744 200.981L139.13 161.662L139.049 135.206Z" fill="url(#paint1_linear_2600_14280)"/>
        <path d="M142.412 135.206L227.137 183.998L222.587 200.98L142.332 161.662L142.412 135.206Z" fill="url(#paint2_linear_2600_14280)"/>
        <path d="M144.325 131.894L228.942 180.872L241.374 168.44L167.196 118.596L144.325 131.894Z" fill="url(#paint3_linear_2600_14280)"/>
        <path d="M142.413 128.274L142.305 30.5047L159.287 25.9541L165.364 115.116L142.413 128.274Z" fill="url(#paint4_linear_2600_14280)"/>
        <path d="M138.587 128.274L138.695 30.5047L121.712 25.9541L115.636 115.116L138.587 128.274Z" fill="url(#paint5_linear_2600_14280)"/>
        <path d="M137.136 131.894L52.5191 180.872L40.0869 168.44L114.265 118.596L137.136 131.894Z" stroke="url(#paint6_linear_2600_14280)"/>
        <path d="M139.049 135.206L54.324 183.998L58.8744 200.981L139.13 161.662L139.049 135.206Z" stroke="url(#paint7_linear_2600_14280)"/>
        <path d="M142.412 135.206L227.137 183.998L222.587 200.98L142.332 161.662L142.412 135.206Z" stroke="url(#paint8_linear_2600_14280)"/>
        <path d="M144.325 131.894L228.942 180.872L241.374 168.44L167.196 118.596L144.325 131.894Z" stroke="url(#paint9_linear_2600_14280)"/>
        <path d="M142.413 128.274L142.305 30.5047L159.287 25.9541L165.364 115.116L142.413 128.274Z" stroke="url(#paint10_linear_2600_14280)"/>
        <path d="M138.587 128.274L138.695 30.5047L121.712 25.9541L115.636 115.116L138.587 128.274Z" stroke="url(#paint11_linear_2600_14280)"/>

        <defs>
            <linearGradient id="paint0_linear_2600_14280" x1="140.731" y1="25.9541" x2="140.731" y2="200.981" gradientUnits="userSpaceOnUse">
                <stop stop-color="#33E6BF"/>
                <stop offset="1" stop-color="#0439C7"/>
            </linearGradient>
            <linearGradient id="paint1_linear_2600_14280" x1="140.731" y1="25.9541" x2="140.731" y2="200.981" gradientUnits="userSpaceOnUse">
                <stop stop-color="#33E6BF"/>
                <stop offset="1" stop-color="#0439C7"/>
            </linearGradient>
            <linearGradient id="paint2_linear_2600_14280" x1="140.731" y1="25.9541" x2="140.731" y2="200.981" gradientUnits="userSpaceOnUse">
                <stop stop-color="#33E6BF"/>
                <stop offset="1" stop-color="#0439C7"/>
            </linearGradient>
            <linearGradient id="paint3_linear_2600_14280" x1="140.731" y1="25.9541" x2="140.731" y2="200.981" gradientUnits="userSpaceOnUse">
                <stop stop-color="#33E6BF"/>
                <stop offset="1" stop-color="#0439C7"/>
            </linearGradient>
            <linearGradient id="paint4_linear_2600_14280" x1="140.731" y1="25.9541" x2="140.731" y2="200.981" gradientUnits="userSpaceOnUse">
                <stop stop-color="#33E6BF"/>
                <stop offset="1" stop-color="#0439C7"/>
            </linearGradient>
            <linearGradient id="paint5_linear_2600_14280" x1="140.731" y1="25.9541" x2="140.731" y2="200.981" gradientUnits="userSpaceOnUse">
                <stop stop-color="#33E6BF"/>
                <stop offset="1" stop-color="#0439C7"/>
            </linearGradient>
            <linearGradient id="paint6_linear_2600_14280" x1="140.731" y1="25.9541" x2="140.731" y2="200.981" gradientUnits="userSpaceOnUse">
                <stop stop-color="#33E6BF"/>
                <stop offset="1" stop-color="#0439C7"/>
            </linearGradient>
            <linearGradient id="paint7_linear_2600_14280" x1="140.731" y1="25.9541" x2="140.731" y2="200.981" gradientUnits="userSpaceOnUse">
                <stop stop-color="#33E6BF"/>
                <stop offset="1" stop-color="#0439C7"/>
            </linearGradient>
            <linearGradient id="paint8_linear_2600_14280" x1="140.731" y1="25.9541" x2="140.731" y2="200.981" gradientUnits="userSpaceOnUse">
                <stop stop-color="#33E6BF"/>
                <stop offset="1" stop-color="#0439C7"/>
            </linearGradient>
            <linearGradient id="paint9_linear_2600_14280" x1="140.731" y1="25.9541" x2="140.731" y2="200.981" gradientUnits="userSpaceOnUse">
                <stop stop-color="#33E6BF"/>
                <stop offset="1" stop-color="#0439C7"/>
            </linearGradient>
            <linearGradient id="paint10_linear_2600_14280" x1="140.731" y1="25.9541" x2="140.731" y2="200.981" gradientUnits="userSpaceOnUse">
                <stop stop-color="#33E6BF"/>
                <stop offset="1" stop-color="#0439C7"/>
            </linearGradient>
        </defs>
    </symbol>
    <symbol id="loader-1" viewBox="0 0 281 240">
        <g>
            <path d="M58.2832 212.609L140.501 172.848L222.718 212.609" stroke="#0439C7"/>
            <path d="M58.2832 212.609L140.501 172.848L222.718 212.609" stroke="url(#paint12_linear_2600_14280)"/>
        </g>
        <g>
            <path d="M27.957 162.739L103.435 111.522L110.174 19.8696" stroke="#0439C7"/>
            <path d="M27.957 162.739L103.435 111.522L110.174 19.8696" stroke="url(#paint13_linear_2600_14280)"/>
        </g>
        <g>
            <path d="M170.826 19.1958L177.565 110.848L253.044 162.739" stroke="#0439C7"/>
            <path d="M170.826 19.1958L177.565 110.848L253.044 162.739" stroke="url(#paint14_linear_2600_14280)"/>
        </g>
        <defs>
            <linearGradient id="paint12_linear_2600_14280" x1="141.175" y1="194.413" x2="137.805" y2="26.609" gradientUnits="userSpaceOnUse">
                <stop stop-color="#0439C7"/>
                <stop offset="1" stop-color="#33E6BF"/>
            </linearGradient>
            <linearGradient id="paint13_linear_2600_14280" x1="-3.04297" y1="175.483" x2="-13.5702" y2="21.3977" gradientUnits="userSpaceOnUse">
                <stop stop-color="#0439C7"/>
                <stop offset="1" stop-color="#33E6BF"/>
            </linearGradient>
            <linearGradient id="paint14_linear_2600_14280" x1="139.826" y1="175.544" x2="129.2" y2="20.7379" gradientUnits="userSpaceOnUse">
                <stop stop-color="#0439C7"/>
                <stop offset="1" stop-color="#33E6BF"/>
            </linearGradient>
        </defs>
    </symbol>
    <symbol id="loader-2" viewBox="0 0 281 240">
        <path d="M58.2822 226.087L140.5 186.326L222.717 226.087" stroke="url(#paint15_linear_2600_14280)"/>
        <g>
            <path d="M14.4775 154.652L89.9558 103.435L96.6949 11.7827" stroke="#0439C7"/>
            <path d="M14.4775 154.652L89.9558 103.435L96.6949 11.7827" stroke="url(#paint16_linear_2600_14280)"/>
        </g>
        <g>
            <path d="M183.63 17.8481L191.043 102.761L266.521 154.652" stroke="#0439C7"/>
            <path d="M183.63 17.8481L191.043 102.761L266.521 154.652" stroke="url(#paint17_linear_2600_14280)"/>
        </g>

        <defs>
            <linearGradient id="paint15_linear_2600_14280" x1="139.152" y1="187" x2="137.13" y2="11.7827" gradientUnits="userSpaceOnUse">
                <stop stop-color="#0439C7"/>
                <stop offset="1" stop-color="#33E6BF"/>
            </linearGradient>
            <linearGradient id="paint16_linear_2600_14280" x1="-16.5225" y1="167.397" x2="-27.0497" y2="13.3108" gradientUnits="userSpaceOnUse">
                <stop stop-color="#0439C7"/>
                <stop offset="1" stop-color="#33E6BF"/>
            </linearGradient>
            <linearGradient id="paint17_linear_2600_14280" x1="152.376" y1="166.856" x2="142.798" y2="19.2442" gradientUnits="userSpaceOnUse">
                <stop stop-color="#0439C7"/>
                <stop offset="1" stop-color="#33E6BF"/>
            </linearGradient>
        </defs>
    </symbol>
    <symbol id="loader-3" viewBox="0 0 281 240">
        <path d="M58.2822 238.891L140.5 199.13L222.717 238.891" stroke="url(#paint18_linear_2600_14280)"/>
        <g>
            <path d="M1 143.87L76.4783 92.6522L83.2174 1" stroke="#0439C7"/>
            <path d="M1 143.87L76.4783 92.6522L83.2174 1" stroke="url(#paint19_linear_2600_14280)"/>
        </g>
        <g>
            <path d="M197.782 1L204.521 92.6522L280 144.543" stroke="#0439C7"/>
            <path d="M197.782 1L204.521 92.6522L280 144.543" stroke="url(#paint20_linear_2600_14280)"/>
        </g>

        <defs>
            <linearGradient id="paint18_linear_2600_14280" x1="139.152" y1="199.804" x2="137.13" y2="24.5869" gradientUnits="userSpaceOnUse">
                <stop stop-color="#0439C7"/>
                <stop offset="1" stop-color="#33E6BF"/>
            </linearGradient>
            <linearGradient id="paint19_linear_2600_14280" x1="-30" y1="156.614" x2="-40.5272" y2="2.5281" gradientUnits="userSpaceOnUse">
                <stop stop-color="#0439C7"/>
                <stop offset="1" stop-color="#33E6BF"/>
            </linearGradient>
            <linearGradient id="paint20_linear_2600_14280" x1="166.782" y1="157.348" x2="156.156" y2="2.5421" gradientUnits="userSpaceOnUse">
                <stop stop-color="#0439C7"/>
                <stop offset="1" stop-color="#33E6BF"/>
            </linearGradient>
        </defs>
    </symbol>
    <symbol id="loader-4" viewBox="0 10 16 226">
        <path d="M0.00390645 64.7156L0.00390625 69.1797L4.47142 69.1797L4.47142 64.7156L0.00390645 64.7156Z" />
        <path d="M0.00390645 59.3373L0.00390625 63.8013L4.47142 63.8013L4.47142 59.3373L0.00390645 59.3373Z" />
        <path d="M0.00390645 53.9649L0.00390625 58.429L4.47142 58.429L4.47142 53.9649L0.00390645 53.9649Z" />
        <path d="M0.00390645 43.2208L0.00390625 47.6848L4.47142 47.6848L4.47142 43.2208L0.00390645 43.2208Z" />
        <path d="M0.00390645 37.8482L0.00390625 42.3123L4.47142 42.3123L4.47142 37.8482L0.00390645 37.8482Z" />
        <path d="M0.00390645 27.0977L0.00390625 31.5618L4.47142 31.5618L4.47142 27.0977L0.00390645 27.0977Z" />
        <path d="M0.00390645 21.7259L0.00390625 26.1899L4.47142 26.1899L4.47142 21.7259L0.00390645 21.7259Z" />
        <path d="M0.00390645 16.3536L0.00390625 20.8176L4.47142 20.8176L4.47142 16.3536L0.00390645 16.3536Z" />
        <path d="M0.00390645 10.981L0.00390625 15.4451L4.47142 15.4451L4.47142 10.981L0.00390645 10.981Z" />
        <path d="M0.00390645 5.60921L0.00390625 10.0732L4.47142 10.0732L4.47142 5.60921L0.00390645 5.60921Z" />
        <path d="M5.31055 64.7156L5.31055 69.1797L9.77797 69.1797L9.77797 64.7156L5.31055 64.7156Z" />
        <path d="M5.31055 59.3373L5.31055 63.8013L9.77797 63.8013L9.77797 59.3373L5.31055 59.3373Z" />
        <path d="M5.31055 53.9649L5.31055 58.429L9.77797 58.429L9.77797 53.9649L5.31055 53.9649Z" />
        <path d="M5.31055 48.5926L5.31055 53.0566L9.77797 53.0566L9.77797 48.5926L5.31055 48.5926Z" />
        <path d="M5.31055 37.8482L5.31055 42.3123L9.77797 42.3123L9.77797 37.8482L5.31055 37.8482Z" />
        <path d="M5.31055 32.4696L5.31055 36.9336L9.77797 36.9336L9.77797 32.4696L5.31055 32.4696Z" />
        <path d="M5.31055 27.0977L5.31055 31.5618L9.77797 31.5618L9.77797 27.0977L5.31055 27.0977Z" />
        <path d="M5.31055 21.7259L5.31055 26.1899L9.77797 26.1899L9.77797 21.7259L5.31055 21.7259Z" />
        <path d="M5.31055 10.981L5.31055 15.4451L9.77797 15.4451L9.77797 10.981L5.31055 10.981Z" />
        <path d="M5.31055 5.60921L5.31055 10.0732L9.77797 10.0732L9.77797 5.60921L5.31055 5.60921Z" />
        <path d="M10.6167 64.7156L10.6167 69.1797L15.0841 69.1797L15.0841 64.7156L10.6167 64.7156Z" />
        <path d="M10.6167 59.3373L10.6167 63.8013L15.0841 63.8013L15.0841 59.3373L10.6167 59.3373Z" />
        <path d="M10.6167 53.9649L10.6167 58.429L15.0841 58.429L15.0841 53.9649L10.6167 53.9649Z" />
        <path d="M10.6167 48.5926L10.6167 53.0566L15.0841 53.0566L15.0841 48.5926L10.6167 48.5926Z" />
        <path d="M10.6167 43.2208L10.6167 47.6848L15.0841 47.6848L15.0841 43.2208L10.6167 43.2208Z" />
        <path d="M10.6167 37.8482L10.6167 42.3123L15.0841 42.3123L15.0841 37.8482L10.6167 37.8482Z" />
        <path d="M10.6167 32.4696L10.6167 36.9336L15.0841 36.9336L15.0841 32.4696L10.6167 32.4696Z" />
        <path d="M10.6167 27.0977L10.6167 31.5618L15.0841 31.5618L15.0841 27.0977L10.6167 27.0977Z" />
        <path d="M10.6167 21.7259L10.6167 26.1899L15.0841 26.1899L15.0841 21.7259L10.6167 21.7259Z" />
        <path d="M10.6167 16.3536L10.6167 20.8176L15.0841 20.8176L15.0841 16.3536L10.6167 16.3536Z" />
        <path d="M10.6167 10.981L10.6167 15.4451L15.0841 15.4451L15.0841 10.981L10.6167 10.981Z" />
        <path d="M0.00390645 8.05855e-05L0.00390625 4.46411L4.47142 4.46411L4.47142 8.07808e-05L0.00390645 8.05855e-05Z" />
        <path d="M5.31055 8.05855e-05L5.31055 4.46411L9.77797 4.46411L9.77797 8.07808e-05L5.31055 8.05855e-05Z" />
        <path d="M10.6167 8.05855e-05L10.6167 4.46411L15.0841 4.46411L15.0841 8.07808e-05L10.6167 8.05855e-05Z" />
        <path d="M4.46777 74.1301L4.46777 69.666L0.000258923 69.666L0.000258727 74.1301L4.46777 74.1301Z" />
        <path d="M4.46777 79.5046L4.46777 75.0405L0.000258923 75.0405L0.000258727 79.5046L4.46777 79.5046Z" />
        <path d="M4.46777 84.8793L4.46777 80.4153L0.000258923 80.4153L0.000258727 84.8793L4.46777 84.8793Z" />
        <path d="M4.46777 95.6283L4.46777 91.1643L0.000258923 91.1643L0.000258727 95.6283L4.46777 95.6283Z" />
        <path d="M4.46777 100.996L4.46777 96.5325L0.000258923 96.5325L0.000258727 100.996L4.46777 100.996Z" />
        <path d="M4.46777 111.746L4.46777 107.281L0.000258923 107.281L0.000258727 111.746L4.46777 111.746Z" />
        <path d="M4.46777 117.12L4.46777 112.656L0.000258923 112.656L0.000258727 117.12L4.46777 117.12Z" />
        <path d="M4.46777 122.495L4.46777 118.031L0.000258923 118.031L0.000258727 122.495L4.46777 122.495Z" />
        <path d="M4.46777 127.869L4.46777 123.405L0.000258923 123.405L0.000258727 127.869L4.46777 127.869Z" />
        <path d="M4.46777 133.237L4.46777 128.773L0.000258923 128.773L0.000258727 133.237L4.46777 133.237Z" />
        <path d="M9.77686 74.1301L9.77686 69.666L5.30944 69.666L5.30944 74.1301L9.77686 74.1301Z" />
        <path d="M9.77686 79.5046L9.77686 75.0405L5.30944 75.0405L5.30944 79.5046L9.77686 79.5046Z" />
        <path d="M9.77686 84.8793L9.77686 80.4153L5.30944 80.4153L5.30944 84.8793L9.77686 84.8793Z" />
        <path d="M9.77686 90.2538L9.77686 85.7898L5.30944 85.7898L5.30944 90.2538L9.77686 90.2538Z" />
        <path d="M9.77686 100.996L9.77686 96.5325L5.30944 96.5325L5.30944 100.996L9.77686 100.996Z" />
        <path d="M9.77686 106.371L9.77686 101.907L5.30944 101.907L5.30944 106.371L9.77686 106.371Z" />
        <path d="M9.77686 111.746L9.77686 107.281L5.30944 107.281L5.30944 111.746L9.77686 111.746Z" />
        <path d="M9.77686 117.12L9.77686 112.656L5.30944 112.656L5.30944 117.12L9.77686 117.12Z" />
        <path d="M9.77686 127.869L9.77686 123.405L5.30944 123.405L5.30944 127.869L9.77686 127.869Z" />
        <path d="M9.77686 133.237L9.77686 128.773L5.30944 128.773L5.30944 133.237L9.77686 133.237Z" />
        <path d="M15.0859 74.1301L15.0859 69.666L10.6185 69.666L10.6185 74.1301L15.0859 74.1301Z" />
        <path d="M15.0859 79.5046L15.0859 75.0405L10.6185 75.0405L10.6185 79.5046L15.0859 79.5046Z" />
        <path d="M15.0859 84.8793L15.0859 80.4153L10.6185 80.4153L10.6185 84.8793L15.0859 84.8793Z" />
        <path d="M15.0859 90.2538L15.0859 85.7898L10.6185 85.7898L10.6185 90.2538L15.0859 90.2538Z" />
        <path d="M15.0859 95.6283L15.0859 91.1643L10.6185 91.1643L10.6185 95.6283L15.0859 95.6283Z" />
        <path d="M15.0859 100.996L15.0859 96.5325L10.6185 96.5325L10.6185 100.996L15.0859 100.996Z" />
        <path d="M15.0859 106.371L15.0859 101.907L10.6185 101.907L10.6185 106.371L15.0859 106.371Z" />
        <path d="M15.0859 111.746L15.0859 107.281L10.6185 107.281L10.6185 111.746L15.0859 111.746Z" />
        <path d="M15.0859 117.12L15.0859 112.656L10.6185 112.656L10.6185 117.12L15.0859 117.12Z" />
        <path d="M15.0859 122.495L15.0859 118.031L10.6185 118.031L10.6185 122.495L15.0859 122.495Z" />
        <path d="M15.0859 127.869L15.0859 123.405L10.6185 123.405L10.6185 127.869L15.0859 127.869Z" />
        <path d="M4.46777 138.846L4.46777 134.382L0.000258923 134.382L0.000258727 138.846L4.46777 138.846Z" />
        <path d="M4.46777 149.589L4.46777 145.125L0.000258923 145.125L0.000258727 149.589L4.46777 149.589Z" />
        <path d="M4.46777 154.963L4.46777 150.499L0.000258923 150.499L0.000258727 154.963L4.46777 154.963Z" />
        <path d="M4.46777 165.712L4.46777 161.248L0.000258923 161.248L0.000258727 165.712L4.46777 165.712Z" />
        <path d="M4.46777 187.204L4.46777 182.74L0.000258923 182.74L0.000258727 187.204L4.46777 187.204Z" />
        <path d="M9.77686 138.846L9.77686 134.382L5.30944 134.382L5.30944 138.846L9.77686 138.846Z" />
        <path d="M9.77686 144.22L9.77686 139.756L5.30944 139.756L5.30944 144.22L9.77686 144.22Z" />
        <path d="M9.77686 154.963L9.77686 150.499L5.30944 150.499L5.30944 154.963L9.77686 154.963Z" />
        <path d="M9.77686 160.338L9.77686 155.874L5.30944 155.874L5.30944 160.338L9.77686 160.338Z" />
        <path d="M9.77686 165.712L9.77686 161.248L5.30944 161.248L5.30944 165.712L9.77686 165.712Z" />
        <path d="M9.77686 171.087L9.77686 166.623L5.30944 166.623L5.30944 171.087L9.77686 171.087Z" />
        <path d="M9.77686 181.83L9.77686 177.366L5.30944 177.366L5.30944 181.83L9.77686 181.83Z" />
        <path d="M15.0859 138.846L15.0859 134.382L10.6185 134.382L10.6185 138.846L15.0859 138.846Z" />
        <path d="M15.0859 149.589L15.0859 145.125L10.6185 145.125L10.6185 149.589L15.0859 149.589Z" />
        <path d="M15.0859 154.963L15.0859 150.499L10.6185 150.499L10.6185 154.963L15.0859 154.963Z" />
        <path d="M15.0859 160.338L15.0859 155.874L10.6185 155.874L10.6185 160.338L15.0859 160.338Z" />
        <path d="M15.0859 171.087L15.0859 166.623L10.6185 166.623L10.6185 171.087L15.0859 171.087Z" />
        <path d="M15.0859 176.455L15.0859 171.991L10.6185 171.991L10.6185 176.455L15.0859 176.455Z" />
        <path d="M15.0859 187.204L15.0859 182.74L10.6185 182.74L10.6185 187.204L15.0859 187.204Z" />
        <path d="M4.46777 198.187L4.46777 193.723L0.000258923 193.723L0.000258727 198.187L4.46777 198.187Z" />
        <path d="M9.77686 192.813L9.77686 188.349L5.30944 188.349L5.30944 192.813L9.77686 192.813Z" />
        <path d="M9.77686 208.93L9.77686 204.466L5.30944 204.466L5.30944 208.93L9.77686 208.93Z" />
        <path d="M9.77686 225.054L9.77686 220.59L5.30944 220.59L5.30944 225.054L9.77686 225.054Z" />
        <path d="M15.0859 203.555L15.0859 199.091L10.6185 199.091L10.6185 203.555L15.0859 203.555Z" />
        <path d="M15.0859 219.679L15.0859 215.215L10.6185 215.215L10.6185 219.679L15.0859 219.679Z" />
    </symbol>
    <symbol id="error" viewBox="0 0 512 512">
        <path fill="var(--Color-primary-turquoise)" d="M256 304c13.25 0 24-10.75 24-24v-128C280 138.8 269.3 128 256 128S232 138.8 232 152v128C232 293.3 242.8 304 256 304zM256 337.1c-17.36 0-31.44 14.08-31.44 31.44C224.6 385.9 238.6 400 256 400s31.44-14.08 31.44-31.44C287.4 351.2 273.4 337.1 256 337.1z"/>
        <path fill="var(--Color-primary-persian-blue)" d="M256 0C114.6 0 0 114.6 0 256s114.6 256 256 256s256-114.6 256-256S397.4 0 256 0zM232 152C232 138.8 242.8 128 256 128s24 10.75 24 24v128c0 13.25-10.75 24-24 24S232 293.3 232 280V152zM256 400c-17.36 0-31.44-14.08-31.44-31.44c0-17.36 14.07-31.44 31.44-31.44s31.44 14.08 31.44 31.44C287.4 385.9 273.4 400 256 400z"/>
    </symbol>
    <symbol id="e-500" viewBox="0 0 640 512">
        <path fill="var(--Color-primary-turquoise)" d="M5.112 9.196C13.29-1.236 28.37-3.065 38.81 5.112L630.8 469.1C641.2 477.3 643.1 492.4 634.9 502.8C626.7 513.2 611.6 515.1 601.2 506.9L9.196 42.89C-1.236 34.71-3.065 19.63 5.112 9.196V9.196z"/>
        <path fill="var(--Color-primary-persian-blue)" d="M399.7 288H448C483.3 288 512 316.7 512 352V375.1L399.7 288zM236.4 160H255.1V64H191.1V125.2L127.1 75.02V64C127.1 28.65 156.7 0 191.1 0H255.1C291.3 0 319.1 28.65 319.1 64V160C319.1 179.3 311.5 196.5 298 208.3L236.4 160zM464 160H480C497.7 160 512 174.3 512 192C512 209.7 497.7 224 480 224H384C366.3 224 352 209.7 352 192C352 174.3 366.3 160 384 160H400V76.4L394.1 78.36C377.4 83.95 359.2 74.89 353.6 58.12C348.1 41.35 357.1 23.23 373.9 17.64L421.9 1.643C431.6-1.61 442.4 .0262 450.7 6.041C459.1 12.06 464 21.71 464 32L464 160zM239.1 448H255.1C273.7 448 287.1 462.3 287.1 480C287.1 497.7 273.7 512 255.1 512H159.1C142.3 512 127.1 497.7 127.1 480C127.1 462.3 142.3 448 159.1 448H175.1V364.4L170.1 366.4C153.4 371.9 135.2 362.9 129.6 346.1C124.1 329.4 133.1 311.2 149.9 305.6L197.9 289.6C207.6 286.4 218.4 288 226.7 294C235.1 300.1 240 309.7 240 320L239.1 448zM319.1 352C319.1 350.7 320 349.5 320.1 348.2L384 398.5V448H446.8L497.8 488.2C486.1 502.7 468.1 512 448 512H384C348.7 512 319.1 483.3 319.1 448V352z"/>
    </symbol>
    <symbol id="home" viewBox="0 0 576 512">
        <path fill="var(--Color-primary-turquoise)" d="M266.9 7.918C278.1-2.639 297-2.639 309.1 7.918L565.1 231.9C578.4 243.6 579.7 263.8 568.1 277.1C556.4 290.4 536.2 291.7 522.9 280.1L288 74.52L53.07 280.1C39.77 291.7 19.56 290.4 7.918 277.1C-3.72 263.8-2.372 243.6 10.93 231.9L266.9 7.918z"/>
        <path fill="var(--Color-primary-persian-blue)" d="M288 74.52L512.1 270.6L512.5 471.9C512.6 494 494.7 512 472.5 512H392C369.9 512 352 494.1 352 472V383.7C352 366 337.7 351.7 320 351.7H256C238.3 351.7 224 366 224 383.7V472C224 494.1 206.1 512 184 512H104.1C81.1 512 64.09 494.1 64.08 472L64.02 270.5L288 74.52z"/>
    </symbol>
    <symbol id="referrals" viewBox="0 0 640 512">
        <path fill="var(--Color-primary-persian-blue)" d="M319.9 320c57.41 0 103.1-46.56 103.1-104c0-57.44-46.54-104-103.1-104c-57.41 0-103.1 46.56-103.1 104C215.9 273.4 262.5 320 319.9 320zM369.9 352H270.1C191.6 352 128 411.7 128 485.3C128 500.1 140.7 512 156.4 512h327.2C499.3 512 512 500.1 512 485.3C512 411.7 448.4 352 369.9 352z"/>
        <path fill="var(--Color-primary-turquoise)" d="M128 160c44.18 0 80-35.82 80-80S172.2 0 128 0C83.82 0 48 35.82 48 80S83.82 160 128 160zM512 160c44.18 0 80-35.82 80-80S556.2 0 512 0c-44.18 0-80 35.82-80 80S467.8 160 512 160zM551.9 192h-61.84c-12.8 0-24.88 3.037-35.86 8.24C454.8 205.5 455.8 210.6 455.8 216c0 33.71-12.78 64.21-33.16 88h199.7C632.1 304 640 295.6 640 285.3C640 233.8 600.6 192 551.9 192zM185.5 200.1C174.6 194.1 162.6 192 149.9 192H88.08C39.44 192 0 233.8 0 285.3C0 295.6 7.887 304 17.62 304h199.5c-20.38-23.79-33.16-54.29-33.16-88C183.9 210.6 184.9 205.4 185.5 200.1z"/>
    </symbol>
    <symbol id="frens" viewBox="0 0 384 512">
        <path fill="var(--Color-primary-persian-blue)" d="M383.6 243.5l-54.13 243.5c-3.25 14.62-16.25 25-31.25 25H85.75c-14.1 0-28-10.38-31.25-25l-54.13-243.5C-.6266 238.7 .4768 233.8 3.477 230c2.1-3.75 7.647-6.031 12.52-6.031l34-.0027c6.1 0 13.75 4.25 15.25 11c8.625 38.1 62.13 69 126.8 69c64.75 0 118.3-30 126.8-69c1.5-6.75 8.375-11 15.25-11l34 .0027c4.875 0 9.522 2.281 12.52 6.031C383.5 233.8 384.6 238.7 383.6 243.5z"/>
        <path fill="var(--Color-primary-turquoise)" d="M114.3 1.097C109.1-.903 103.3-.1529 98.88 3.222L70.38 24.85C65.5 28.47 63.13 34.6 64.25 40.6l36.87 197.1c5.375 7.625 14.5 14.88 26.87 20.75V33.1L124.3 13.1C123.3 7.599 119.5 3.097 114.3 1.097zM215.1 17.72L183.1 1.722C178.3-.7779 172.3-.5279 167.6 2.347C162.9 5.226 160 10.47 160 15.97v252.8c21.12 4.375 42.87 4.375 63.1 0V31.97C223.1 25.97 220.6 20.35 215.1 17.72zM20.63 80.73C15.25 79.1 9.504 80.35 5.379 83.98C1.254 87.73-.7458 93.23 .2542 98.73l16.25 93.26h33.5c3.625 0 6.1 1 10.37 1.75L40.38 86.6L20.63 80.73zM299.4 32.72l-34.25 10.25c-4.25 1.25-7.125 4.5-9.125 8.25v207.3c17.5-8.375 29.12-19.5 31.5-30.38c.5-1.75 1.5-3.25 2.125-4.875l30.12-172.5c1-5.5-.1-10.1-5.125-14.63C310.5 32.35 304.7 31.1 299.4 32.72zM378.6 84.1c-4.125-3.75-9.875-5-15.25-3.375l-17.25 5.125l-18.75 107.3c2.25-.375 4.25-1.125 6.625-1.125h33.5l16.25-93.26C384.7 93.23 382.7 87.73 378.6 84.1z"/>
    </symbol>
    <symbol id="verified" viewBox="0 0 512 512">
        <path fill="var(--Color-primary-turquoise)" d="M352.1 191C362.3 200.4 362.3 215.6 352.1 224.1L240.1 336.1C231.6 346.3 216.4 346.3 207 336.1L151 280.1C141.7 271.6 141.7 256.4 151 247C160.4 237.7 175.6 237.7 184.1 247L224 286.1L319 191C328.4 181.7 343.6 181.7 352.1 191z"/>
        <path fill="var(--Color-primary-persian-blue)" d="M256 0C292.8 0 324.8 20.7 340.9 51.1C373.8 40.1 410.1 48.96 437 74.98C463 101 470.1 138.2 460.9 171.1C491.3 187.2 512 219.2 512 256C512 292.8 491.3 324.8 460.9 340.9C471 373.8 463 410.1 437 437C410.1 463 373.8 470.1 340.9 460.9C324.8 491.3 292.8 512 256 512C219.2 512 187.2 491.3 171.1 460.9C138.2 471 101 463 74.98 437C48.96 410.1 41 373.8 51.1 340.9C20.7 324.8 0 292.8 0 256C0 219.2 20.7 187.2 51.1 171.1C40.1 138.2 48.96 101 74.98 74.98C101 48.96 138.2 41 171.1 51.1C187.2 20.7 219.2 0 256 0V0zM352.1 224.1C362.3 215.6 362.3 200.4 352.1 191C343.6 181.7 328.4 181.7 319 191L224 286.1L184.1 247C175.6 237.7 160.4 237.7 151 247C141.7 256.4 141.7 271.6 151 280.1L207 336.1C216.4 346.3 231.6 346.3 240.1 336.1L352.1 224.1z"/>
    </symbol>
    <symbol id="airdrop" viewBox="0 0 56 56">
        <path d="M42.0559 24.0059C42.0547 23.9955 42.0539 23.985 42.0524 23.9747C42.0452 23.9235 42.0356 23.8725 42.0221 23.822C42.0219 23.8215 42.0217 23.821 42.0216 23.8204C42.0089 23.7733 41.9927 23.7268 41.9744 23.6808C41.9692 23.6676 41.9634 23.6549 41.9578 23.642C41.9434 23.6088 41.9273 23.5761 41.9099 23.5439C41.9023 23.5299 41.895 23.5158 41.8868 23.502C41.8824 23.4945 41.8789 23.4868 41.8743 23.4793C41.8559 23.4495 41.8357 23.4215 41.8153 23.3938C41.8115 23.3886 41.8084 23.3832 41.8045 23.3781C41.7734 23.337 41.7398 23.2989 41.7045 23.2628C41.698 23.256 41.6907 23.2496 41.6839 23.243C41.6533 23.213 41.6215 23.1849 41.5884 23.1584C41.58 23.1517 41.5717 23.145 41.563 23.1385C41.5187 23.1051 41.473 23.0739 41.4254 23.0469L23.0888 12.437L33.6464 5.66967L51.346 15.9108L43.8917 20.6888C43.31 21.0616 43.1354 21.8439 43.5017 22.436C43.8678 23.0282 44.6363 23.2059 45.218 22.833L54.4315 16.9274C54.8019 16.6901 55.0226 16.2721 55.0126 15.8266C55.0028 15.3812 54.764 14.974 54.3834 14.7538L34.2287 3.09191C33.83 2.86107 33.3388 2.87247 32.9504 3.12118L20.0117 11.4148C20.0091 11.4165 20.0064 11.4182 20.0038 11.4199L13.5383 15.5642C13.5353 15.5661 13.5323 15.568 13.5295 15.5699L0.58193 23.8693C0.211528 24.1066 -0.00914554 24.5246 0.000811508 24.97C0.0106441 25.4155 0.249489 25.8227 0.630097 26.0429L20.7849 37.7047C20.9758 37.8154 21.1879 37.8703 21.3999 37.8703C21.6305 37.8703 21.8608 37.8051 22.063 37.6755L31.2765 31.7697C31.8583 31.3969 32.0329 30.6146 31.6666 30.0225C31.3006 29.4304 30.5319 29.2525 29.9503 29.6255L21.3671 35.1271L3.66762 24.8858L14.2253 18.1183L33.1027 29.041V43.5074C33.1027 43.9688 33.349 44.3937 33.7458 44.6166C33.9333 44.7221 34.1404 44.7744 34.3473 44.7744C34.578 44.7744 34.8083 44.7091 35.0104 44.5795L41.4842 40.4299C41.8462 40.1979 42.0657 39.7931 42.0657 39.3577V24.1542C42.0657 24.1468 42.0645 24.1397 42.0642 24.1322C42.0635 24.0901 42.0608 24.0481 42.0559 24.0059ZM35.5919 41.2126V28.304C35.5919 27.8483 35.3515 27.4278 34.9623 27.2027L16.615 16.5867L20.699 13.9688L38.3984 24.21L36.8487 25.2033C36.267 25.576 36.0924 26.3584 36.4587 26.9504C36.6952 27.333 37.0995 27.5425 37.5131 27.5425C37.7397 27.5425 37.9692 27.4795 38.175 27.3475L39.5764 26.4493V38.6585L35.5919 41.2126Z" fill="var(--Color-primary-turquoise)"/>
        <path d="M53.1052 19.8508L43.8917 25.7565C43.31 26.1293 43.1353 26.9116 43.5016 27.5037C43.7381 27.8863 44.1425 28.0957 44.5561 28.0957C44.7826 28.0957 45.0121 28.0327 45.218 27.9007L54.4315 21.995C55.0132 21.6223 55.1879 20.84 54.8216 20.2479C54.4554 19.6557 53.6868 19.4778 53.1052 19.8508Z" fill="var(--Color-primary-persian-blue)"/>
        <path d="M29.9499 34.6932L21.3668 40.1949L1.85987 28.9079C1.26269 28.5623 0.50247 28.7746 0.16281 29.3833C-0.176849 29.9915 0.0321241 30.765 0.629796 31.1108L20.7846 42.7726C20.9755 42.8832 21.1876 42.9382 21.3996 42.9382C21.6302 42.9382 21.8605 42.873 22.0627 42.7434L31.2762 36.8376C31.858 36.4648 32.0326 35.6825 31.6663 35.0904C31.3003 34.4981 30.5316 34.3202 29.9499 34.6932Z" fill="var(--Color-primary-persian-blue)"/>
        <path d="M53.1052 24.9187L43.8917 30.8244C43.31 31.1972 43.1353 31.9795 43.5016 32.5716C43.7381 32.9542 44.1425 33.1636 44.5561 33.1636C44.7826 33.1636 45.0121 33.1006 45.218 32.9686L54.4315 27.0629C55.0132 26.6902 55.1879 25.9079 54.8216 25.3158C54.4554 24.7235 53.6868 24.5457 53.1052 24.9187Z" fill="var(--Color-primary-persian-blue)"/>
        <path d="M29.9499 39.761L21.3668 45.2626L1.85987 33.9757C1.26269 33.63 0.50247 33.8424 0.16281 34.451C-0.176849 35.0593 0.0321241 35.8328 0.629796 36.1785L20.7846 47.8404C20.9755 47.951 21.1876 48.006 21.3996 48.006C21.6302 48.006 21.8605 47.9407 22.0627 47.8111L31.2762 41.9053C31.858 41.5326 32.0326 40.7502 31.6663 40.1582C31.3003 39.5657 30.5316 39.388 29.9499 39.761Z" fill="var(--Color-primary-persian-blue)"/>
        <path d="M53.1052 29.9865L43.8917 35.8922C43.31 36.2649 43.1353 37.0473 43.5016 37.6393C43.7381 38.022 44.1425 38.2314 44.5561 38.2314C44.7826 38.2314 45.0121 38.1684 45.218 38.0364L54.4315 32.1307C55.0132 31.758 55.1879 30.9756 54.8216 30.3836C54.4554 29.7914 53.6868 29.6137 53.1052 29.9865Z" fill="var(--Color-primary-persian-blue)"/>
        <path d="M29.9499 44.8289L21.3668 50.3305L1.85987 39.0435C1.26269 38.6979 0.50247 38.9103 0.16281 39.5189C-0.176849 40.1272 0.0321241 40.9006 0.629796 41.2464L20.7846 52.9083C20.9755 53.0189 21.1876 53.0739 21.3996 53.0739C21.6302 53.0739 21.8605 53.0086 22.0627 52.879L31.2762 46.9732C31.858 46.6004 32.0326 45.8181 31.6663 45.226C31.3003 44.6337 30.5316 44.4559 29.9499 44.8289Z" fill="var(--Color-primary-persian-blue)"/>
    </symbol>
    <symbol id="airdrop-secondary" viewBox="0 0 24 24">
        <path d="M14.1297 11.3401C14.5197 9.70008 13.0897 8.27003 11.4497 8.66003C10.6797 8.85003 10.0497 9.48005 9.85974 10.2501C9.46974 11.8901 10.8997 13.32 12.5397 12.93C13.3197 12.74 13.9497 12.1101 14.1297 11.3401Z" fill="var(--Color-primary-persian-blue)"/>
        <path d="M6.02094 17.97C5.84093 17.97 5.65093 17.9 5.51093 17.77C3.57093 15.97 2.46094 13.43 2.46094 10.79C2.46094 5.52998 6.74093 1.25 12.0009 1.25C17.2609 1.25 21.5409 5.52998 21.5409 10.79C21.5409 13.45 20.4709 15.91 18.5309 17.74C18.2309 18.02 17.7509 18.01 17.4709 17.71C17.1909 17.41 17.2009 16.93 17.5009 16.65C19.1409 15.11 20.0409 13.04 20.0409 10.8C20.0409 6.36999 16.4309 2.76001 12.0009 2.76001C7.57093 2.76001 3.96094 6.36999 3.96094 10.8C3.96094 13.06 4.87093 15.14 6.53093 16.68C6.83093 16.96 6.85094 17.44 6.57094 17.74C6.42094 17.89 6.22094 17.97 6.02094 17.97Z" fill="var(--Color-primary-turquoise)"/>
        <path d="M15.9995 15.3C15.8195 15.3 15.6295 15.23 15.4895 15.1C15.1895 14.82 15.1695 14.34 15.4595 14.04C16.2895 13.16 16.7495 12 16.7495 10.8C16.7495 8.18005 14.6195 6.06006 12.0095 6.06006C9.39952 6.06006 7.26953 8.19005 7.26953 10.8C7.26953 12.01 7.72952 13.16 8.55952 14.04C8.83952 14.34 8.82953 14.82 8.52953 15.1C8.22953 15.39 7.74953 15.3701 7.46953 15.0701C6.37953 13.9101 5.76953 12.39 5.76953 10.8C5.76953 7.36005 8.56952 4.56006 12.0095 4.56006C15.4495 4.56006 18.2495 7.36005 18.2495 10.8C18.2495 12.39 17.6495 13.9101 16.5495 15.0701C16.3995 15.2201 16.1995 15.3 15.9995 15.3Z" fill="var(--Color-primary-turquoise)"/>
        <path d="M10.3007 16.66L8.86071 18.4501C7.72071 19.8801 8.73071 21.99 10.5607 21.99H13.4307C15.2607 21.99 16.2807 19.8701 15.1307 18.4501L13.6907 16.66C12.8307 15.57 11.1707 15.57 10.3007 16.66Z" fill="var(--Color-primary-persian-blue)"/>
    </symbol>
    <symbol id="arrow" viewBox="0 0 16 16">
        <path xmlns="http://www.w3.org/2000/svg" fill-rule="evenodd" d="M1.646 4.646a.5.5 0 0 1 .708 0L8 10.293l5.646-5.647a.5.5 0 0 1 .708.708l-6 6a.5.5 0 0 1-.708 0l-6-6a.5.5 0 0 1 0-.708z"/>
    </symbol>
    <symbol id="close" viewBox="0 0 18 18">
        <path d="M4.8 14.25L3.75 13.2L7.95 9L3.75 4.8L4.8 3.75L9 7.95L13.2 3.75L14.25 4.8L10.05 9L14.25 13.2L13.2 14.25L9 10.05L4.8 14.25Z"/>
    </symbol>
    <symbol id="x" viewBox="0 0 34 34">
        <path d="M20.1648 14.3967L32.5499 0H29.615L18.861 12.5004L10.2718 0H0.365234L13.3538 18.9029L0.365234 34H3.30027L14.6568 20.7991L23.7276 34H33.6341L20.164 14.3967H20.1648ZM16.1448 19.0694L14.8288 17.1871L4.35781 2.20944H8.86586L17.3161 14.2969L18.6321 16.1792L29.6164 31.891H25.1083L16.1448 19.0701V19.0694Z" />
    </symbol>
    <symbol id="discord" viewBox="0 0 40 40">
        <path d="M33.8618 7.28324C31.3123 6.11348 28.5784 5.2516 25.7199 4.75793C25.6679 4.7484 25.6158 4.77223 25.589 4.81981C25.2374 5.4452 24.8479 6.26098 24.5752 6.90223C21.5008 6.44192 18.442 6.44192 15.4306 6.90223C15.1578 6.24676 14.7542 5.4452 14.401 4.81981C14.3742 4.77379 14.3222 4.74996 14.2701 4.75793C11.4133 5.24996 8.67936 6.11184 6.12826 7.28324C6.10615 7.29277 6.08725 7.30863 6.07467 7.32926C0.889043 15.0765 -0.531582 22.6334 0.165293 30.0965C0.168418 30.133 0.188965 30.1679 0.217324 30.1901C3.63865 32.7027 6.95287 34.228 10.2054 35.2391C10.2575 35.255 10.3126 35.236 10.3458 35.1931C11.1151 34.1424 11.801 33.0345 12.389 31.8694C12.4237 31.8012 12.3906 31.7203 12.3197 31.6932C11.2318 31.2806 10.1959 30.7774 9.19943 30.2061C9.1206 30.16 9.11428 30.0473 9.18686 29.9933C9.39654 29.8362 9.60631 29.6727 9.80654 29.5076C9.84279 29.4775 9.89326 29.4711 9.93584 29.4901C16.4821 32.4789 23.5692 32.4789 30.0382 29.4901C30.0808 29.4695 30.1312 29.4759 30.169 29.506C30.3694 29.6711 30.579 29.8361 30.7903 29.9932C30.8628 30.0472 30.858 30.16 30.7793 30.206C29.7828 30.7885 28.7469 31.2805 27.6575 31.6916C27.5865 31.7186 27.555 31.8011 27.5897 31.8693C28.1904 33.0328 28.8763 34.1407 29.6315 35.1914C29.663 35.2359 29.7197 35.255 29.7718 35.239C33.0401 34.228 36.3544 32.7026 39.7757 30.19C39.8057 30.1679 39.8246 30.1345 39.8277 30.098C40.6618 21.4698 38.4308 13.9749 33.9137 7.33074C33.9027 7.30863 33.8838 7.29277 33.8618 7.28324ZM13.3668 25.5522C11.3959 25.5522 9.77193 23.7429 9.77193 21.5207C9.77193 19.2985 11.3644 17.4891 13.3668 17.4891C15.3848 17.4891 16.9931 19.3144 16.9615 21.5207C16.9615 23.7429 15.369 25.5522 13.3668 25.5522ZM26.6579 25.5522C24.6872 25.5522 23.0632 23.7429 23.0632 21.5207C23.0632 19.2985 24.6556 17.4891 26.6579 17.4891C28.6761 17.4891 30.2843 19.3144 30.2528 21.5207C30.2528 23.7429 28.6762 25.5522 26.6579 25.5522Z"/>
    </symbol>
    <symbol id="telegram" viewBox="0 0 50 50">
        <path xmlns="http://www.w3.org/2000/svg" fill-rule="evenodd" clip-rule="evenodd" d="M48.1491 9.36373C48.8114 6.13504 45.6401 3.45194 42.5658 4.63979L4.87992 19.2002C1.44662 20.5267 1.29364 25.3277 4.6355 26.87L12.8424 30.6579L16.7466 44.3223C16.9494 45.0321 17.5126 45.5817 18.2272 45.7669C18.9417 45.9519 19.7009 45.7452 20.2229 45.2231L26.2368 39.2092L34.6612 45.5275C37.1066 47.3615 40.6287 46.0256 41.2428 43.0313L48.1491 9.36373ZM6.38159 23.0869L44.0674 8.52646L37.1612 42.1942L27.2914 34.7917C26.462 34.1696 25.3014 34.2521 24.5683 34.9852L21.9924 37.561L22.7664 33.3046L37.9312 18.1399C38.6693 17.4018 38.7472 16.2316 38.1137 15.4021C37.4801 14.5727 36.3308 14.34 35.4245 14.8579L14.4815 26.8252L6.38159 23.0869ZM17.035 30.165L18.2983 34.5867L18.7833 31.919C18.8591 31.5021 19.0603 31.1181 19.3599 30.8185L23.9847 26.194L17.035 30.165Z"/>
    </symbol>
    <symbol id="github" viewBox="0 0 496 512">
        <path d="M165.9 397.4c0 2-2.3 3.6-5.2 3.6-3.3 .3-5.6-1.3-5.6-3.6 0-2 2.3-3.6 5.2-3.6 3-.3 5.6 1.3 5.6 3.6zm-31.1-4.5c-.7 2 1.3 4.3 4.3 4.9 2.6 1 5.6 0 6.2-2s-1.3-4.3-4.3-5.2c-2.6-.7-5.5 .3-6.2 2.3zm44.2-1.7c-2.9 .7-4.9 2.6-4.6 4.9 .3 2 2.9 3.3 5.9 2.6 2.9-.7 4.9-2.6 4.6-4.6-.3-1.9-3-3.2-5.9-2.9zM244.8 8C106.1 8 0 113.3 0 252c0 110.9 69.8 205.8 169.5 239.2 12.8 2.3 17.3-5.6 17.3-12.1 0-6.2-.3-40.4-.3-61.4 0 0-70 15-84.7-29.8 0 0-11.4-29.1-27.8-36.6 0 0-22.9-15.7 1.6-15.4 0 0 24.9 2 38.6 25.8 21.9 38.6 58.6 27.5 72.9 20.9 2.3-16 8.8-27.1 16-33.7-55.9-6.2-112.3-14.3-112.3-110.5 0-27.5 7.6-41.3 23.6-58.9-2.6-6.5-11.1-33.3 2.6-67.9 20.9-6.5 69 27 69 27 20-5.6 41.5-8.5 62.8-8.5s42.8 2.9 62.8 8.5c0 0 48.1-33.6 69-27 13.7 34.7 5.2 61.4 2.6 67.9 16 17.7 25.8 31.5 25.8 58.9 0 96.5-58.9 104.2-114.8 110.5 9.2 7.9 17 22.9 17 46.4 0 33.7-.3 75.4-.3 83.6 0 6.5 4.6 14.4 17.3 12.1C428.2 457.8 496 362.9 496 252 496 113.3 383.5 8 244.8 8zM97.2 352.9c-1.3 1-1 3.3 .7 5.2 1.6 1.6 3.9 2.3 5.2 1 1.3-1 1-3.3-.7-5.2-1.6-1.6-3.9-2.3-5.2-1zm-10.8-8.1c-.7 1.3 .3 2.9 2.3 3.9 1.6 1 3.6 .7 4.3-.7 .7-1.3-.3-2.9-2.3-3.9-2-.6-3.6-.3-4.3 .7zm32.4 35.6c-1.6 1.3-1 4.3 1.3 6.2 2.3 2.3 5.2 2.6 6.5 1 1.3-1.3 .7-4.3-1.3-6.2-2.2-2.3-5.2-2.6-6.5-1zm-11.4-14.7c-1.6 1-1.6 3.6 0 5.9 1.6 2.3 4.3 3.3 5.6 2.3 1.6-1.3 1.6-3.9 0-6.2-1.4-2.3-4-3.3-5.6-2z"/>
    </symbol>
</svg>


